<?xml version="1.0" encoding="UTF-8"?>
<!DOCTYPE svg PUBLIC "-//W3C//DTD SVG 1.1//EN" "http://www.w3.org/Graphics/SVG/1.1/DTD/svg11.dtd">
<!-- Creator: CorelDRAW 2019 (64-Bit) -->
<svg xmlns="http://www.w3.org/2000/svg" xml:space="preserve" width="16.9365mm" height="16.9335mm" version="1.1" style="shape-rendering:geometricPrecision; text-rendering:geometricPrecision; image-rendering:optimizeQuality; fill-rule:evenodd; clip-rule:evenodd"
viewBox="0 0 190.14 190.11"
 xmlns:xlink="http://www.w3.org/1999/xlink"
 xmlns:xodm="http://www.corel.com/coreldraw/odm/2003">
 <defs>
  <style type="text/css">
   <![CDATA[
    .fil1 {fill:#FEFEFE;fill-rule:nonzero}
    .fil0 {fill:#F85360;fill-rule:nonzero}
   ]]>
  </style>
 </defs>
 <g id="Слой_x0020_1">
  <metadata id="CorelCorpID_0Corel-Layer"/>
  <g id="_2535665072976">
   <path class="fil0" d="M190.14 95.06c0,52.5 -42.57,95.05 -95.07,95.05 -52.51,0 -95.07,-42.55 -95.07,-95.05 0,-52.51 42.57,-95.06 95.07,-95.06 52.5,0 95.07,42.55 95.07,95.06z"/>
   <polygon class="fil1" points="40.62,105.22 91.36,105.22 91.36,157.55 83.26,157.55 81.48,157.55 81.48,164.87 83.26,164.87 106.62,164.87 108.4,164.87 108.4,157.55 106.62,157.55 98.78,157.55 98.78,105.22 149.52,105.22 151.56,105.22 151.56,42.34 149.52,42.34 40.62,42.34 38.58,42.34 38.58,105.22 "/>
  </g>
 </g>
</svg>
