<?xml version="1.0" encoding="UTF-8"?>
<!DOCTYPE svg PUBLIC "-//W3C//DTD SVG 1.1//EN" "http://www.w3.org/Graphics/SVG/1.1/DTD/svg11.dtd">
<!-- Creator: CorelDRAW 2019 (64-Bit) -->
<svg xmlns="http://www.w3.org/2000/svg" xml:space="preserve" width="16.9365mm" height="16.9335mm" version="1.1" style="shape-rendering:geometricPrecision; text-rendering:geometricPrecision; image-rendering:optimizeQuality; fill-rule:evenodd; clip-rule:evenodd"
viewBox="0 0 190.14 190.11"
 xmlns:xlink="http://www.w3.org/1999/xlink"
 xmlns:xodm="http://www.corel.com/coreldraw/odm/2003">
 <defs>
  <style type="text/css">
   <![CDATA[
    .fil1 {fill:#FEFEFE}
    .fil0 {fill:#F85360;fill-rule:nonzero}
   ]]>
  </style>
 </defs>
 <g id="Слой_x0020_1">
  <metadata id="CorelCorpID_0Corel-Layer"/>
  <g id="_2535590675440">
   <path class="fil0" d="M190.14 95.06c0,52.5 -42.57,95.05 -95.07,95.05 -52.51,0 -95.07,-42.55 -95.07,-95.05 0,-52.51 42.57,-95.06 95.07,-95.06 52.5,0 95.07,42.55 95.07,95.06z"/>
   <path class="fil1" d="M33.62 51.38c28.16,-3.45 36.18,-7.06 61.45,6.73 25.27,-13.62 33.28,-9.99 61.45,-6.73l-0.37 90.49c-20.48,-5.06 -32.63,-11.49 -61.04,-10.61l0 0 -0.02 -0 -0.04 0 0 -0c-27.27,-1.36 -40.57,5.55 -61.04,10.61l-0.37 -90.49z"/>
  </g>
 </g>
</svg>
