<?xml version="1.0" encoding="UTF-8"?>
<!DOCTYPE svg PUBLIC "-//W3C//DTD SVG 1.1//EN" "http://www.w3.org/Graphics/SVG/1.1/DTD/svg11.dtd">
<!-- Creator: CorelDRAW 2019 (64-Bit) -->
<svg xmlns="http://www.w3.org/2000/svg" xml:space="preserve" width="16.9365mm" height="16.9335mm" version="1.1" style="shape-rendering:geometricPrecision; text-rendering:geometricPrecision; image-rendering:optimizeQuality; fill-rule:evenodd; clip-rule:evenodd"
viewBox="0 0 190.14 190.11"
 xmlns:xlink="http://www.w3.org/1999/xlink"
 xmlns:xodm="http://www.corel.com/coreldraw/odm/2003">
 <defs>
  <style type="text/css">
   <![CDATA[
    .fil1 {fill:#FEFEFE;fill-rule:nonzero}
    .fil0 {fill:#F85360;fill-rule:nonzero}
   ]]>
  </style>
 </defs>
 <g id="Слой_x0020_1">
  <metadata id="CorelCorpID_0Corel-Layer"/>
  <path class="fil0" d="M190.14 95.06c0,52.5 -42.57,95.05 -95.07,95.05 -52.51,0 -95.07,-42.55 -95.07,-95.05 0,-52.51 42.57,-95.06 95.07,-95.06 52.5,0 95.07,42.55 95.07,95.06z"/>
  <path class="fil1" d="M120.05 41.59c-10.78,0.14 -20.14,7.04 -25.22,17.17 -5.32,-10.04 -14.83,-16.62 -25.62,-16.53 -16.42,0.24 -29.5,15.98 -29.26,35.13 0.05,3.77 0.62,7.36 1.6,10.77 2.32,11 19.03,29 34.41,43.5 7.47,7.04 20.01,16.89 20.01,16.89 5.29,-3.82 12.29,-10.17 19.57,-17.4 15,-14.87 31.27,-33.33 33.3,-44.38 0.91,-3.35 1.39,-6.99 1.32,-10.76 -0.24,-19.2 -13.73,-34.57 -30.13,-34.39z"/>
 </g>
</svg>
