<?xml version="1.0" encoding="UTF-8"?>
<!DOCTYPE svg PUBLIC "-//W3C//DTD SVG 1.1//EN" "http://www.w3.org/Graphics/SVG/1.1/DTD/svg11.dtd">
<!-- Creator: CorelDRAW 2019 (64-Bit) -->
<svg xmlns="http://www.w3.org/2000/svg" xml:space="preserve" width="16.9365mm" height="16.9335mm" version="1.1" style="shape-rendering:geometricPrecision; text-rendering:geometricPrecision; image-rendering:optimizeQuality; fill-rule:evenodd; clip-rule:evenodd"
viewBox="0 0 258 257.95"
 xmlns:xlink="http://www.w3.org/1999/xlink"
 xmlns:xodm="http://www.corel.com/coreldraw/odm/2003">
 <defs>
  <style type="text/css">
   <![CDATA[
    .fil0 {fill:#F85360;fill-rule:nonzero}
    .fil1 {fill:#FEFEFE}
   ]]>
  </style>
 </defs>
 <g id="Слой_x0020_1">
  <metadata id="CorelCorpID_0Corel-Layer"/>
  <g id="_2535477027888">
   <path class="fil0" d="M258 128.98c0,71.23 -57.76,128.97 -128.99,128.97 -71.25,0 -129,-57.73 -129,-128.97 0,-71.25 57.76,-128.98 129,-128.98 71.23,0 128.99,57.74 128.99,128.98z"/>
   <path class="fil1" d="M70.87 196.9l0 -138.02c0,0 4.99,-7.48 52.66,-6.45 47.67,1.04 49.48,4.09 50.42,4.63 0.94,0.54 1.33,1.36 1.72,3.56 0.39,2.2 0.32,19.56 0.32,19.56 0,0 33.36,-2.92 34.33,39.06 0.97,41.97 -26.81,49.87 -34.33,51.04 -0.13,8.03 -0.26,27.85 -0.26,27.85 0,0 -54.15,17.62 -104.86,-1.23zm105.12 -42.17l-0.29 -58.65c0,0 16.81,-6.45 20.95,20.11 4.14,26.56 -15.93,40.03 -20.66,38.54z"/>
  </g>
 </g>
</svg>
